<svg width="50" height="46" viewBox="0 0 50 46" fill="none" xmlns="http://www.w3.org/2000/svg">
<path fill-rule="evenodd" clip-rule="evenodd" d="M39.6259 37.1312C40.4336 37.1312 41.2358 37.0425 42.0172 36.8594C42.4497 36.7603 42.8705 36.63 43.2879 36.4789C44.47 36.0456 45.5635 35.3988 46.5173 34.5848C47.1581 34.0371 48.1207 34.1154 48.6627 34.7575L48.7617 34.8718C49.3036 35.5082 49.2254 36.4732 48.59 37.0162C47.3449 38.0756 45.9234 38.9095 44.3918 39.4788C42.8664 40.0424 41.2565 40.3295 39.6259 40.3295C35.9439 40.3295 32.4385 38.8575 29.8396 36.2543C27.2352 33.6454 25.7657 30.1346 25.7657 26.4455C25.7657 25.6052 26.4538 24.9216 27.287 24.9216H27.4379C28.2768 24.9216 28.9584 25.6052 28.9584 26.4455C28.9584 26.8525 28.9848 27.2594 29.0319 27.6608C29.3073 30.0506 30.3751 32.2733 32.0952 33.9947C34.1002 35.9984 36.7876 37.1312 39.6259 37.1312ZM19.6415 20.0444C19.6415 19.2624 20.2776 18.6252 21.0534 18.6252H22.1628C22.945 18.6252 23.5796 19.2624 23.5796 20.0444C23.5796 20.8263 22.945 21.4636 22.1628 21.4636H21.0534C20.2776 21.4636 19.6415 20.8224 19.6415 20.0444ZM25.3866 20.0444C25.3866 19.2624 26.0228 18.6252 26.8042 18.6252H27.9081C28.6895 18.6252 29.3247 19.2624 29.3247 20.0444C29.3247 20.8263 28.6895 21.4636 27.9081 21.4636H26.8042C26.022 21.4636 25.3866 20.8224 25.3866 20.0444ZM9.49521 37.1312C12.3286 37.1312 15.0216 35.9992 17.0218 33.9956C17.3451 33.6725 17.6468 33.3335 17.923 32.9729C18.4961 32.2325 18.9654 31.4234 19.3246 30.5679C19.8713 29.2791 20.1579 27.8806 20.1579 26.4463C20.1579 25.606 20.8395 24.9224 21.6784 24.9224H21.83C22.6688 24.9224 23.3506 25.606 23.3506 26.4463C23.3506 30.1346 21.8811 33.6461 19.283 36.255C16.6786 38.8583 13.1787 40.3303 9.49601 40.3303C7.86617 40.3303 6.25148 40.0432 4.72459 39.4795C3.19452 38.9102 1.77299 38.0763 0.531842 37.0169C-0.107487 36.4741 -0.180918 35.5091 0.360236 34.8727L0.45442 34.7583C0.996373 34.1163 1.96534 34.0379 2.59988 34.5856C3.55848 35.3995 4.65275 36.0471 5.83005 36.4797C7.00096 36.913 8.2405 37.1312 9.49521 37.1312ZM24.5581 3.19261C21.9122 3.19261 19.3964 4.252 17.5272 6.12451C15.6578 8.00342 14.5995 10.518 14.5995 13.1732C14.5995 14.3478 15.0736 15.1144 15.6466 16.0899C17.152 18.6148 17.7506 20.5089 17.7506 23.5088V26.4463C17.7506 28.6426 16.8751 30.7351 15.3226 32.2893C13.7757 33.8444 11.6878 34.7152 9.49442 34.7152C7.30106 34.7152 5.20907 33.8436 3.66144 32.2893C2.10901 30.7351 1.23502 28.6426 1.23502 26.4463C1.23502 25.606 1.91666 24.9224 2.75552 24.9224H2.90637C3.74444 24.9224 4.42688 25.606 4.42688 26.4463C4.42688 27.7976 4.96324 29.0759 5.91704 30.0307C6.86846 30.9853 8.14552 31.5226 9.49442 31.5226C10.8433 31.5226 12.1147 30.9853 13.0678 30.0307C14.0208 29.0759 14.558 27.7976 14.558 26.4463V23.5088C14.558 21.0886 14.1102 19.7478 12.9065 17.7226C12.0055 16.2043 11.4068 15.0153 11.4068 13.1732C11.4068 9.67205 12.7964 6.33879 15.2667 3.86502C17.7403 1.39206 21.0638 -0.000732422 24.5581 -0.000732422C28.0525 -0.000732422 31.3808 1.39206 33.8496 3.86502C36.3183 6.33879 37.7094 9.67205 37.7094 13.1732C37.7094 15.0153 37.1156 16.2043 36.2146 17.7226C35.0109 19.747 34.5583 21.0878 34.5583 23.5088V26.4463C34.5583 27.7976 35.1003 29.0759 36.0484 30.0307C37.0015 30.9853 38.2769 31.5226 39.6259 31.5226C40.9748 31.5226 42.251 30.9853 43.1993 30.0307C44.1522 29.0759 44.6886 27.7976 44.6886 26.4463C44.6886 25.606 45.371 24.9224 46.2099 24.9224H46.3608C47.1988 24.9224 47.8813 25.606 47.8813 26.4463C47.8813 28.6426 47.0057 30.7351 45.4596 32.2893C43.9072 33.8444 41.8192 34.7152 39.6259 34.7152L38.9498 34.6887C37.0062 34.5272 35.1841 33.6821 33.7936 32.2886C33.0745 31.5681 32.507 30.7391 32.096 29.8315C31.6219 28.777 31.3713 27.6248 31.3713 26.4455V23.508C31.3713 20.5081 31.9699 18.6141 33.4705 16.0891C34.0482 15.1129 34.5169 14.3469 34.5169 13.1724C34.5169 10.5172 33.4656 8.00262 31.5899 6.12371C29.7199 4.2512 27.2096 3.19261 24.5581 3.19261ZM28.8706 13.1628C28.8706 12.0154 28.4013 10.9305 27.5944 10.1214C26.7866 9.31306 25.7035 8.85412 24.5573 8.85412C23.7184 8.85412 23.036 8.17053 23.036 7.33021V7.1791C23.036 6.33959 23.7184 5.65598 24.5573 5.65598C26.5456 5.65598 28.4428 6.45472 29.8492 7.8579C31.2555 9.26669 32.0569 11.16 32.0616 13.1532C32.0616 13.5698 31.9164 13.9352 31.6195 14.2326C31.3226 14.5301 30.9634 14.6812 30.5403 14.6812H30.3904C29.5562 14.6812 28.8754 13.9976 28.8706 13.1628ZM24.5581 34.4713C25.0841 34.4497 25.6045 34.7008 25.9015 35.1748C27.3804 37.4911 29.4277 39.4115 31.8286 40.7421C34.2246 42.0621 36.8913 42.7457 39.625 42.7457C40.4639 42.7457 41.1463 43.4293 41.1463 44.2687V44.4207C41.1463 45.2602 40.4631 45.9438 39.625 45.9438C36.3541 45.9438 33.1568 45.1194 30.2922 43.5379C28.0892 42.3274 26.1409 40.6949 24.5581 38.7535C22.9745 40.6949 21.0271 42.3274 18.8281 43.5379C15.9635 45.1194 12.7613 45.9438 9.49442 45.9438C8.65635 45.9438 7.97391 45.2602 7.97391 44.4207V44.2687C7.97391 43.4285 8.65635 42.7457 9.49442 42.7457C12.2241 42.7457 14.8908 42.0621 17.2861 40.7421C19.6926 39.4115 21.7343 37.4911 23.2132 35.1748C23.5149 34.6999 24.037 34.4497 24.5581 34.4713Z" fill="#00FF00"/>
</svg>
